<?xml version="1.0" standalone="no"?>
<!DOCTYPE svg PUBLIC "-//W3C//DTD SVG 20010904//EN"
 "http://www.w3.org/TR/2001/REC-SVG-20010904/DTD/svg10.dtd">
<svg version="1.0" xmlns="http://www.w3.org/2000/svg"
 width="165.000000pt" height="180.000000pt" viewBox="0 0 165.000000 180.000000"
 preserveAspectRatio="xMidYMid meet">

<g transform="translate(0.000000,180.000000) scale(0.100000,-0.100000)"
fill="#000000" stroke="none">
<path d="M360 1385 c-7 -8 -18 -15 -25 -15 -29 0 -35 -78 -35 -427 0 -218 4
-361 10 -379 6 -16 22 -37 35 -47 22 -16 62 -17 514 -18 293 0 498 4 508 10
10 5 27 19 38 31 19 21 20 37 20 410 l0 389 -34 30 -35 31 -492 0 c-425 0
-493 -2 -504 -15z m991 -92 c6 -16 9 -151 7 -358 -2 -263 -6 -335 -17 -348
-12 -15 -58 -17 -477 -17 -407 0 -464 2 -478 16 -14 13 -16 60 -16 355 0 216
4 347 10 360 10 18 26 19 486 19 l474 0 11 -27z"/>
<path d="M605 1165 c-32 -32 -35 -41 -35 -91 0 -50 3 -59 34 -90 31 -31 39
-34 94 -34 54 0 64 3 90 30 54 54 54 130 -1 188 -28 29 -37 32 -89 32 -52 0
-60 -3 -93 -35z m137 -58 c33 -52 -27 -112 -74 -74 -46 35 -15 106 40 92 15
-4 30 -12 34 -18z"/>
<path d="M982 1138 c-39 -39 6 -58 143 -58 81 0 107 3 119 16 19 19 20 26 4
42 -17 17 -249 17 -266 0z"/>
<path d="M988 999 c-10 -5 -18 -16 -18 -24 0 -25 38 -36 117 -33 58 2 78 7 86
20 21 33 -8 48 -92 48 -42 0 -84 -5 -93 -11z"/>
<path d="M550 869 c-54 -30 -84 -68 -104 -133 l-19 -59 24 -18 c22 -16 25 -16
41 -2 10 9 18 28 18 42 0 29 22 66 55 93 25 21 126 33 197 23 66 -9 109 -49
123 -116 11 -47 33 -61 60 -39 47 39 -22 173 -110 214 -51 25 -238 21 -285 -5z"/>
</g>
</svg>
