<?xml version="1.0" standalone="no"?>
<!DOCTYPE svg PUBLIC "-//W3C//DTD SVG 20010904//EN"
 "http://www.w3.org/TR/2001/REC-SVG-20010904/DTD/svg10.dtd">
<svg version="1.0" xmlns="http://www.w3.org/2000/svg"
 width="231.000000pt" height="195.000000pt" viewBox="0 0 231.000000 195.000000"
 preserveAspectRatio="xMidYMid meet">

<g transform="translate(0.000000,195.000000) scale(0.100000,-0.100000)"
fill="#000000" stroke="none">
<path d="M995 1559 c-137 -8 -232 -29 -258 -57 -22 -23 -22 -27 -22 -350 l0
-327 37 -55 c56 -83 113 -140 218 -216 125 -91 150 -104 199 -104 70 0 210 97
348 241 88 93 86 83 93 444 7 391 11 377 -110 406 -65 15 -376 26 -505 18z
m410 -79 c50 -6 102 -18 118 -26 l27 -15 0 -277 c0 -226 -3 -282 -15 -306 -8
-15 -15 -34 -15 -40 0 -18 -137 -156 -205 -207 -113 -85 -141 -95 -189 -75
-86 37 -278 213 -316 291 -24 49 -25 56 -28 332 l-3 282 30 15 c16 9 74 21
128 27 54 6 100 13 103 16 8 8 270 -3 365 -17z"/>
<path d="M1081 1278 c-45 -29 -75 -95 -57 -123 7 -11 23 -21 34 -23 17 -3 25
5 38 38 19 47 44 64 83 55 37 -8 53 -40 49 -101 l-3 -49 -113 -5 c-145 -6
-151 -13 -152 -141 0 -72 3 -91 21 -113 l20 -26 168 0 c210 0 201 -6 201 141
l-1 104 -32 20 c-30 19 -32 25 -38 92 -7 77 -24 109 -72 137 -40 23 -105 20
-146 -6z m214 -348 l0 -55 -130 0 -130 0 -3 58 -3 58 133 -3 133 -3 0 -55z"/>
</g>
</svg>
