<?xml version="1.0" standalone="no"?>
<!DOCTYPE svg PUBLIC "-//W3C//DTD SVG 20010904//EN"
 "http://www.w3.org/TR/2001/REC-SVG-20010904/DTD/svg10.dtd">
<svg version="1.0" xmlns="http://www.w3.org/2000/svg"
 width="185.000000pt" height="170.000000pt" viewBox="0 0 185.000000 170.000000"
 preserveAspectRatio="xMidYMid meet">

<g transform="translate(0.000000,170.000000) scale(0.100000,-0.100000)"
fill="#000000" stroke="none">
<path d="M468 897 c-40 -33 -45 -68 -13 -105 37 -44 83 -44 119 -1 30 36 32
46 10 79 -37 55 -72 64 -116 27z"/>
<path d="M831 885 c-38 -43 -38 -55 -5 -94 19 -23 34 -31 59 -31 25 0 40 8 59
31 33 39 33 57 -3 97 -40 43 -70 42 -110 -3z"/>
<path d="M1206 891 c-35 -36 -36 -74 -6 -107 32 -33 76 -32 112 3 36 34 35 63
-1 102 -37 39 -69 40 -105 2z"/>
</g>
</svg>
