<?xml version="1.0" standalone="no"?>
<!DOCTYPE svg PUBLIC "-//W3C//DTD SVG 20010904//EN"
 "http://www.w3.org/TR/2001/REC-SVG-20010904/DTD/svg10.dtd">
<svg version="1.0" xmlns="http://www.w3.org/2000/svg"
 width="203.000000pt" height="177.000000pt" viewBox="0 0 203.000000 177.000000"
 preserveAspectRatio="xMidYMid meet">

<g transform="translate(0.000000,177.000000) scale(0.100000,-0.100000)"
fill="#000000" stroke="none">
<path d="M574 1486 c-78 -28 -104 -81 -104 -211 0 -92 1 -96 25 -107 44 -20
55 1 55 111 0 89 2 99 23 119 20 19 35 22 113 22 108 0 135 13 116 54 -11 25
-14 26 -104 25 -51 -1 -107 -6 -124 -13z"/>
<path d="M1212 1488 c-7 -7 -12 -19 -12 -28 0 -33 22 -40 120 -40 88 0 98 -2
118 -23 19 -21 22 -34 22 -120 0 -89 2 -97 22 -108 19 -10 24 -8 41 12 26 32
21 175 -8 234 -32 64 -80 85 -195 85 -62 0 -100 -4 -108 -12z"/>
<path d="M1078 1020 c-78 -77 -147 -140 -153 -140 -6 0 -37 27 -70 60 -64 65
-97 75 -103 31 -3 -19 14 -42 79 -107 46 -46 89 -84 97 -84 21 0 332 315 332
337 0 19 -17 43 -32 43 -5 0 -72 -63 -150 -140z"/>
<path d="M482 758 c-18 -18 -16 -177 3 -222 33 -78 72 -96 210 -96 92 0 104 2
110 19 14 44 -1 51 -107 51 -92 0 -101 2 -123 25 -23 22 -25 32 -25 114 0 49
-3 96 -6 105 -7 19 -45 21 -62 4z"/>
<path d="M1467 763 c-4 -3 -7 -50 -7 -103 0 -92 -1 -97 -28 -123 -27 -26 -33
-27 -125 -27 -81 0 -99 -3 -104 -16 -14 -37 10 -49 103 -52 137 -5 186 16 219
94 19 45 21 204 3 222 -13 13 -50 16 -61 5z"/>
</g>
</svg>
